/* XPM */
static char *trees[] = {
"48 48 9 1 ",
"- c #33161F",
"X c #0B2E23",
"o c #5B3138",
"O c #174429",
"+ c #2E6D35",
"@ c #8E5252",
"# c #AA7564",
"$ c #63A941",
"  c None",
"                      +++        ++++           ",
"                    +$$$++++    ++$+$+          ",
"                   +$$$$$$+OOOOO$$$$$$+         ",
"                   ++$+$$$$$OOOO$$$$$$$+        ",
"                  +$$$$$+$$+O+O+$+$$$$$$+       ",
"                  O+$$$+$+++OOO++$$$$+$$$+      ",
"             $$+ ++O+$$$+++++OO+++$$$$$+$+      ",
"            $$$$O+OO+O$++++++XO++++$$+$$$X      ",
"            +$$O$OOO+++++++OOOXO++++$$+++O      ",
"            +$++++OOX+++OOO+$$+OO++O++$+OOO     ",
"          OO$$+XO++XOXOOXO+$$$+OOOO+++OOOOO     ",
"    +++  $O$$OXOXO+XOOOOO+$$++O+OOOOOOOOOOO     ",
"   $$$++X$$$$$OOO+O+++O+OXOOOXO+OXOOOOOOOO      ",
"  $$$$$$X$$+$$O+O++$+++OXOXOOOX+OXXXOXX+XOOO    ",
" ++$$+$$O$+$$++O+$$$O+XOOXOOOXO+XX XXXXX        ",
" +$$+$$++OO$++OXX+$+OXOXXXXOXXOOXX              ",
" +$$$$++OOO+++XOOOO+XOXX  X+XOOXX    $$$$       ",
" +O$O+XOOOX+OOX+OXOOXX--  -XXXXXX   $$+$$$$     ",
"  O++OOOXXOOXOOOXOXXXX--  -- XXX   O$$$$+$$$    ",
"  +OOOXXOOOOOXXOOXX+X --  --X   X O++$$$$$+++   ",
"   +XXXOXO+XO+OXXX+XX o- --o      X+O+$$++++O   ",
"    X XO$$$$OOOX XXX- o- -o       XX++++++OOX   ",
"   X  X$$$$++OXX   -- ----o       XXOOX+O+O+++  ",
"      XX$OOOOXX    --- --o-       X+XOOO+O+$$$+ ",
"       OOOOOX+X-   -o- --o-   + ---XXXXOX+$$$$$ ",
"       XOOXXXX-o-   -- o--   +$oo- XXX+XOX+$+$$$",
"        OXXX X ---- --oo--  --oo     XXOX+O$$$$O",
"             X   --- o-#-o -o          XOO+$$+$ ",
"                  -oo-o--oo-           X+XO+$$  ",
"                   o--oooo--           XXXOO+   ",
"                   oo-oo-o-             X+X+O   ",
"                   $-#-o-o-              XXX    ",
"                   $+oo-oo-              X      ",
"                    +oo-o#-                     ",
"                     #o--o# $                   ",
"                     -#o--#$                    ",
"                     -#o--$$                    ",
"                      -o-o++                    ",
"                      -#o-o##                   ",
"                    $ -#ooo#-                   ",
"                    $$ -#-oo#o                  ",
"                     $+-#-o-#-  $               ",
"                  #o ++-o#--o#-$$               ",
"                 #o#o +-oo-o-o#+  #             ",
"                #oooo##o---oo-#o #o#    #       ",
"               #oo--oo-#oo--##-#-o--$-#-o#      ",
"        ######ooo--$--oo#$$$-ooooo--$$o$ o#     ",
"      oo--ooooo---$++-+$$$+++-o--o-$$++ + o##   "
};
