/* XPM */
static char *trees[] = {
"48 48 9 1 ",
"- c #33161F",
"X c #0B2E23",
"o c #5B3138",
"O c #174429",
"+ c #2E6D35",
"@ c #8E5252",
"# c #AA7564",
"$ c #63A941",
"  c None",
"                     +X+                        ",
"                    O$$$$                       ",
"                $$$++O$$$O     $$$              ",
"                $$+$++$$$$$++  $$+$$$           ",
"              $$+$++++$$+$O++$$$$$+$+   $$$     ",
"              X$$O+++++O+OO++$$O$$$$O++$$$$$    ",
"              O+O+O+OOOO+O+++$$$++$$$O++$$+$    ",
"             ++++OOOOOOOOOO+$$$++++$$O+$$+$$+   ",
"            +O++$$$$+$$$$+OOO$$+OO+$$$$$$$$+++  ",
"            O++$$+$$$$+$$$$++$O$$OO$O$O$$$$$++$ ",
"         +++++$+$$$O$+$$$$$$+O$$++OOO$$$$+$$$$$ ",
"        +$$$++$$$$+O$++$$+$+++O+XX++OO+++++$$+$ ",
"       +$$$$$++$$$++++++$$+OO++++++++O++O++++$+ ",
"       $$$+$++$+$++++++++$OOX$$$$$$X+OOO++++$$+ ",
"    $+++$$$$$++++++++O+O$+OX$$$$+$$$O+XOOO++$$  ",
"   $+$O+$$$+$O++X++OO+OO+OO$+$O$+$++$$+XOOO+$   ",
"  $$$$++O$+O+$+++XXX+XXOO+X$$$$$++$$$+X+OOXOO$  ",
" $$$$$+++OO++O+XX$X$$$OXXOX$$$++OO+$O$XOOXOOOX  ",
"+$$+$$O+OOO+O++OXX$+$O$OXX$O$$+OO+$$$+$$OOOXOO  ",
"+X$$$$$OXO+OOOO$$$$$$++$XX$$$++++XX$$$$$$+$$XO  ",
"+$$$++$+++XXOO$+$$++O$+$OXXX$$+OXXXXX$+$$$$$$OX ",
"+$+$+++++XXOX+$$+++++O$+XXXX$+$OXXOOO$$$O$$+$$OO",
"+$$+++++XXXXO$$+$++O+++X+$+OX++OXXOOOOOO+$$$$$OO",
" O$$+++XXXXX+$++++OOO+XO$$+++X+XOOOOOOOOOOOO$$OO",
"  XXX+XX$$$XO+O+OOOXOX$$$+$O+++OXO$$$OOOOOO$$+OO",
"  XXXXX$+$$OO++OOOOXX$+++O++O+OXO$+$$$OOXOOOOOOO",
"  X   $+$$+$X+OOO++O$+++++++++XX$++++$+OXXOXOOOO",
"  X   $+$++O+OOXXOOO+++++OOOX+X$+O++++OXOXXXXOO ",
"  +   $+++OOOOXXXXXOOOOOOOOXXX+X++++++OX  XXX   ",
"      +OOOOOOXX  X XXOOOXXXXXOOOOO+++XXX    X   ",
"       +XXOOXX   X  XOXXXX---  XXOOOO+XX    X   ",
"        XXX --- X    --------   XXXXOXX     +   ",
"             @--    ----o-----   XXXXX     +    ",
"              @--X--o-o--o-o--     X       +    ",
"               @+#oo-o-oooo---     +            ",
"                +###@-oooooo---                 ",
"                     -@ooooo-o-                 ",
"                    $+@ooo#oo--                 ",
"                    +@--oo#oo--                 ",
"                    @@oooo##---                 ",
"              $    @@ooooo#o--                  ",
"             $   o@@-oo#o#oo-- $$               ",
"        @@@@++ @@@@-o###ooo-o-+$    +           ",
"   $$ @@@##o#@@@----##oooo----+   +++           ",
"     +@#o#o####ooooo#oooooo--   ++XO            ",
"    @@##oooooo##oo##ooo$+---- $++XOOO +         ",
"   @$Ooo$XoXoooo$+Xooo++OX--++XOX++XOOX+        ",
"@@$$XXOXX++XX++XXXOXOXXXXOOXXXOXXXXXXOXX+       "
};
