/* XPM */
static char *trees[] = {
"48 48 9 1 ",
"- c #33161F",
"X c #0B2E23",
"o c #5B3138",
"O c #174429",
"+ c #2E6D35",
"@ c #8E5252",
"# c #AA7564",
"$ c #63A941",
"  c None",
"                      +X+                       ",
"                     +O$++++                    ",
"                    ++$$$$X++                   ",
"                   +++$$+$$+$++                 ",
"                ++++O$$$$$$+$++                 ",
"               ++$$+O$$$+$+$$+$+                ",
"               +$$$$+$+$$+$$$$$++               ",
"               +$+$$+O+$++$$$$O$+               ",
"              +$$$$$$O++++O$$++O++++            ",
"          +$++$$+$++++O+++++++OOX$$+++          ",
"         +$$++O$$+++++OO+OO++OOX$$+$$++         ",
"        +$$$$O+$++++++O$$OO$OOX$$$+$$OX         ",
"        $$$$$XO++++OO$$$+$$OOO$$+$+++XOO+       ",
"        $+$+$O+O++OO+$+$$$$OO+$$$+++OO$+O+      ",
"       O$$++++XO$+O+$$$+++++OO+++++O+$$$+X+     ",
"       +O+++O+XXOOOO+++++++++X++++++$$+$$$X     ",
"      +XX++OOXXO$$$OX+++O++X++O+O+O$+$O+$$X     ",
"    O+$$XX+OOXO$+$$$OXO++++OXXO++OO$+++$$$++    ",
"   $+$$+$$XOOO+$$$$+++X++OOOXXXOOXO+++++++X+    ",
"   ++$$$++OXX$$+$$++++OXOOX+$+$+XXO++++++OXX    ",
"   ++$++OO+OX$$++++++OOOXX+$$+$$+XOO++OOOOX     ",
"    +OOOOOOXX$$+OOO+OOOOXO$+++++++XOOO++OO+     ",
"     O$OXXXXX$+OOOOOOXXXO$++++$+++XXOOOOOOO     ",
"      OX$$OXXO+OOOOOX$O+O++$+++++++XOOOOOO      ",
"      X++$$OXXOXXXX$$++++++++O++O+OOOXXOX       ",
"     +X+++++XXXXXX+O++O++OO+OOOO+OXXXXOX        ",
"     XXX+++X+OX++X+++OOOOXOOOOOOOOOXXX +        ",
"      XXX+XXXO+++++OOOOOXXXXOOOXXXXXX  +        ",
"       OXXXXO++++O+OOOOXXXXXXOOXXX      $       ",
"        X +XXXO++OOXOXXXX--XX --                ",
"        +  X O+OOOOXOX-----   -                 ",
"        +     O+OOOOX  --o   -o                 ",
"               OXXXX   o--  -o                  ",
"                  +     oo-XX                   ",
"                  +     o--oX                   ",
"                   $    o#- +                   ",
"                        o#  +                   ",
"                        o#                      ",
"                       $#-                      ",
"                       #o-                      ",
"                       #--                      ",
"                       #-o                      ",
"                       o-                       ",
"                   $  #--                       ",
"                    + o#-+$                     ",
"                    +o##-o+                     ",
"              +O   oo##o---- ++                 ",
"             +OOO-o++-o--o+++OOO                "
};
