/* XPM */
static char *trees[] = {
"48 48 9 1 ",
"- c #33161F",
"X c #0B2E23",
"o c #5B3138",
"O c #174429",
"+ c #2E6D35",
"@ c #8E5252",
"# c #AA7564",
"$ c #63A941",
"  c None",
"                                                ",
"                       ++                       ",
"                  $$$$OO+++ ++++                ",
"                 $$$$$+OO+++$+$$$$$c $++        ",
"              $$$$$$$$$$OO$$+$$$++++$$$$        ",
"             $$$$+$+++++OOX+O$++$$$$+$$$+       ",
"             O++$++++++OOOOOOO++++$++++$$+      ",
"            O+++$$+++OO+$OO+OOO+O++++++$$       ",
"           O+OO+$$O+OX+$$$$++++OOO+++OOO$       ",
"           ++OOO++XOO$$$$$+OX+X+XOOO++OOOO      ",
"        ++++$$XO+OOO$$++++OOOO$X++XOO+OOOOX     ",
"       $$$$$$+OXOXOX$+++OOOOOOXXOXXOOOXX$$$     ",
"      $+$$$$$++OXXOX++XOO$$OXXOOXOXOX$$$$$$$    ",
"     $++$$++$+OOOXO++OO$$$$$X$$$OXXX$$$$+$$$$   ",
"   ++O++$+++++OOXOXOOXO$+$$+$++$$+X+X$++$$$+$X  ",
"  $$++OO+++++++OOOXXXO$O++++++$+++OOXX++++$$X   ",
" $$$$++++OOOOOO+$$$OXOO++++++O++O+O++X$$+++X$   ",
"++$$$+$$+$XOO$$$$$$+$XOO++++++++OOX+X$XXX++XX   ",
"++$$+$$$$$$$O$$+$+++XXXOOO++OOOOOOXOOOX+++OOO++ ",
"X$$$++$$$OOX$$+++++X++XXOOOOOOOOXOX+OOO++$$$$O++",
"X$$+++$+++OO$+++++O+XXO+XXOXXXXOXXO$OO+$$++$$$OX",
"++++++++++O++++++XXXX  X--X    + +OOXOOOO+++$$O$",
" X+$X++X++X++X$+XXXX    - X    X  XXXOOOOO+++$O+",
" O++X++++XX+XXOO  X- X -@ X   X   ---OOOOOOO++OO",
"  OXXXXXXXXOXXX    --+X-  +   +  -- XXOOOOOOOOO ",
"     XXXO OXXX      @--@        --   X    XOO+$$",
"      X    XX-        --       -X    +     OXX  ",
"      X    X --        --     -#X          X    ",
"      +       ---       --   @# +          +    ",
"                --       oo  o                  ",
"                 -X       @oo#                  ",
"                  X@       oo# $                ",
"                  X#o      oo+$                 ",
"                  + @     @oo+                  ",
"                  + o@    @o+                   ",
"                     o   @##                    ",
"                     o@  ##                     ",
"                   $ o# @#-                     ",
"                   $+#o@#-                      ",
"                    +ooo-                       ",
"                    #oo-                        ",
"                   @#o-                         ",
"                   o#o-+$                       ",
"                    o#-+                        ",
"                    @+#o                        ",
"                     -##                        ",
"                     -@o#                       ",
"                   @ooooo@@                     "
};
